<svg width="22" height="16" viewBox="0 0 22 16" fill="none" xmlns="http://www.w3.org/2000/svg">
<path d="M5.5 1.14286C5.5 0.511696 5.99251 0 6.6 0H20.9C21.5075 0 22 0.511696 22 1.14286C22 1.77402 21.5075 2.28571 20.9 2.28571H6.6C5.99251 2.28571 5.5 1.77397 5.5 1.14286ZM20.9 6.85714H1.1C0.492508 6.85714 0 7.36888 0 8C0 8.63116 0.492508 9.14286 1.1 9.14286H20.9C21.5075 9.14286 22 8.63116 22 8C22 7.36888 21.5075 6.85714 20.9 6.85714ZM20.9 13.7143H11C10.3926 13.7143 9.9 14.226 9.9 14.8571C9.9 15.4883 10.3926 16 11 16H20.9C21.5075 16 22 15.4883 22 14.8571C22 14.226 21.5075 13.7143 20.9 13.7143Z" fill="white"/>
</svg>
